# xmcd
#
# Track frame offsets:
#	150
#	11590
#	25457
#	38690
#	58743
#	75226
#	96176
#	128414
#	148094
#	162129
#	180497
#	210555
#	227217
#	242599
#
# Disc length: 3500 seconds
#
# Revision: 1
# Processed by: cddbd v1.5.2PL0 Copyright (c) Steve Scherf et al.
# Submitted via: audiograbber 1.83.01
#
DISCID=aa0daa0e
DTITLE=The Curtis King Band - Cool Blues
DYEAR=1900
DGENRE=
TTITLE0=Memphis Blues
TTITLE1=My Baby's So Fine
TTITLE2=Panic
TTITLE3=Does It Feel Allright?
TTITLE4=Best As I Can
TTITLE5=Here I Come With The Blues
TTITLE6=Tides of Sorrow
TTITLE7=Steam Train Blues
TTITLE8=Mountain Train
TTITLE9=Walkin' Away From You
TTITLE10=Take My Hand
TTITLE11=Saigon Shakedown
TTITLE12=Meet Me In Harlem
TTITLE13=Hey Yeah
EXTD=
EXTT0=
EXTT1=
EXTT2=
EXTT3=
EXTT4=
EXTT5=
EXTT6=
EXTT7=
EXTT8=
EXTT9=
EXTT10=
EXTT11=
EXTT12=
EXTT13=
PLAYORDER=
